
<global>
amp_veltrack=0
ampeg_release=0.50
</global>

<group>
group_label=Group_0-45
lpc_hicc1=42
lpc_locc1=0

<region>
hikey=a3
hivel=127
lokey=g#3
lovel=0
lpc=px8FQxygQ8Pr4DdCj+xcwXMWPEG6tbZAxATyQFmyaUAZGb5AEe75QKEaaUC+8D/BYpI9v4MtIEAFe6e+GZ9WwLdYk7+S9s1A1okRwSKWGL9PMxQ+LWGVv2zoCsF6x1xB
lpc_rms=-25.93
pitch_keycenter=a3
sample=Clarinet_tremolo_PP_A3.opus
</region>

<region>
hikey=a4
hivel=127
lokey=g#4
lovel=0
lpc=UrtjQuy+hcIJ3oRBs2gtwVsjA0GxEoU/ymf8PsVl98BNwS5BOOwDQGl/aD+SvYfAcJpXwEDzhT+vwzFASAQswM6iCMCQJQ4/evf2P1fszj77zX4+MrjNO6ObPUDA/0FA
lpc_rms=-25.35
pitch_keycenter=a4
sample=Clarinet_tremolo_PP_A4.opus
</region>

<region>
hikey=a5
hivel=127
lokey=g#5
lovel=0
lpc=UxWsQuBexMK2345BZ5tYwBU7ikE0DQFBapCWwECvScGSxX5BCPkPwfryEj+gPsy/ErWwQAsuk0CPgnU/2dCxwIMmND/Fo0O//70fwKUe2EBjlRBAQ0HmQJjiekDa8r/B
lpc_rms=-20.76
pitch_keycenter=a5
sample=Clarinet_tremolo_PP_A5.opus
</region>

<region>
hikey=b3
hivel=127
lokey=a#3
lovel=0
lpc=h+rTQkOyQcN47LJCVTwywa0GOkFyrE/BbffQQIxOlD+gKT1Be6LTP381vT8vPyLBPSA9vrLYRMCAATlArd8QwZ54pT3UaAVB8TkxQJByKMA4sfU/NKOuP55kKcE3KPRA
lpc_rms=-24.79
pitch_keycenter=b3
sample=Clarinet_tremolo_PP_B3.opus
</region>

<region>
hikey=b4
hivel=127
lokey=a#4
lovel=0
lpc=/Cq4QuIhmMJDtYxB/O6lwQwlEEF4rZvAdr2uwFXiNcCUzTO+GNwmQaLsjUBKCoPASkS5vo+3EsCpM/g/moUsPy+6Q8AhOw5AcxSWQGenT0DKunxAu/hUQOT4PUDxkdg/
lpc_rms=-24.35
pitch_keycenter=b4
sample=Clarinet_tremolo_PP_B4.opus
</region>

<region>
hikey=b5
hivel=127
lokey=a#5
lovel=0
lpc=KwIhQXlOYsFdkaBAy2OUv+B9+z8BtgS/f4wqPZD/mr4bcRk+tUg2PutDoD54mw+/mlIgP7EtAL6hnEy+wsOAPgMSCz5ZCjI+1btQvnNC3T0UXca+dV2HPY17FsDKePo/
lpc_rms=-33.86
pitch_keycenter=b5
sample=Clarinet_tremolo_PP_B5.opus
</region>

<region>
hikey=c#4
hivel=127
lokey=c4
lovel=0
lpc=kpaoQhIcMMPABMRCrYiEwbB7hkEFsoi+QktVQG3H+MA3hFRA2TH6wNsfdEArkSA+mnrNv1cl9r/rZgZAicPpwIWjoUA0cBtBOndPP0StdsCq0f2/w8ztvlZ/bsE602JB
lpc_rms=-26.96
pitch_keycenter=c#4
sample=Clarinet_tremolo_PP_C#4.opus
</region>

<region>
hikey=c#5
hivel=127
lokey=c5
lovel=0
lpc=XqgHQ8f6H8MwYRRC/SjAwV1bIUJHFePA25xTwNcrZsFp8hRBdLN/wF/4ZUF/QQ5A11lVwSUS8EBO07a/FSW9wPZAAb8LkZRAdgMaQf+EjUAJbyxAQxrpQN29Kj+p/w/B
lpc_rms=-18.64
pitch_keycenter=c#5
sample=Clarinet_tremolo_PP_C#5.opus
</region>

<region>
hikey=c#6
hivel=127
lokey=c6
lovel=0
lpc=jITsQduhA8JtAQVB2EsqwJCDvr9on9M/rbwmQB1xfsA0LUxAHSx5PzDgEcAXGh5Aj8zSPkOWgb9numg/lH6+P+0hJr/B5qm+dGUCQAN7qD9q1bHArPhNwUKnCkGFegNB
lpc_rms=-23.70
pitch_keycenter=c#6
sample=Clarinet_tremolo_PP_C#6.opus
</region>

<region>
hikey=d#4
hivel=127
lokey=d4
lovel=0
lpc=4oY5QhxahMIVgbBA+Hp7QH8fP0EVwf5A44KSwGuT7sArBAJBKz8iwYLFwUBF/Q0/WPbcv6jwm772rPs+wLjWP4rwAMBm89s/heW2Pyh+9r9NiU3ACdeLvxKc2T/iyD1A
lpc_rms=-29.89
pitch_keycenter=d#4
sample=Clarinet_tremolo_PP_D#4.opus
</region>

<region>
hikey=d#5
hivel=127
lokey=d5
lovel=0
lpc=Gc/FQZ8E6sGCL65AVhyCwI6u/EDP8q2+db+ZP6JaeMA4K0VAlvIwQDkqLb/fYCe/OwKSv5ehs78dFVRAGqawv2fAb7/pKQJAEHuRQI4Ri70yakTAZo+2v00lRsCMq9pA
lpc_rms=-32.79
pitch_keycenter=d#5
sample=Clarinet_tremolo_PP_D#5.opus
</region>

<region>
hikey=d#6
hivel=127
lokey=d6
lovel=0
lpc=I7aeQX1Y6MEWx4pB6ckMwbcXq0CkvnzAsxWAP5NhLD47HAc/7jMvvx0Z1z+NT6W9svavvh/ltj/t6DG/GuszPQuV/j+5Bju/BKnYwKVUNb8nbuBAu3asP4w+nMDkZJJA
lpc_rms=-24.31
pitch_keycenter=d#6
sample=Clarinet_tremolo_PP_D#6.opus
</region>

<region>
hikey=f4
hivel=127
lokey=e4
lovel=0
lpc=7oEZQ8e+WMPiGo1CxfAMwiQcyEEOOoVAfoxlQQdLlMHmgs1AR9JeQZbDQ8HW+QBBmReyvzaai8B1tkFAnJ0owY0JZED85QRBc/YtwBLfJT/V9kDBgBVAv/wEM8Fe29hB
lpc_rms=-26.27
pitch_keycenter=f4
sample=Clarinet_tremolo_PP_F4.opus
</region>

<region>
hikey=f5
hivel=127
lokey=e5
lovel=0
lpc=fvG6QfXs08Eb7qJAX9SBwN2Z9ECMoYk/ZmOxPxRmlr77O1bAeL3/P0iqZz+uEiC9V/9nvcdhyj8mLqE/RwQkv9XF/L30xcI/YRrEP4yUpD6tHivAGcKHP7oP0z1q5EVA
lpc_rms=-30.17
pitch_keycenter=f5
sample=Clarinet_tremolo_PP_F5.opus
</region>

<region>
hikey=f6
hivel=127
lokey=e6
lovel=0
lpc=3tAFQpJtC8JIzotBLkkGwbWdkED4vfA/Vq2rwGHiOECLJWm+JY2pP2GUnL9sIIBAhl8HwA+j5z7E4pxAKaBDwLL0F8Eo3ODAEucDQdEsYkA1h/2/upcEwArbOUD8HNE/
lpc_rms=-24.06
pitch_keycenter=f6
sample=Clarinet_tremolo_PP_F6.opus
</region>

<region>
hivel=127
key=g3
lovel=0
lpc=Tz7BQuRUEsOG64JCVgDEwZQ6RkFqeB7B8srzQMZnyr+Y1ws/b/o5Ppn/gcCW8L1AonJywMWonD6dZmdAfIaMwKABvb9GLoY/UNqIPxLpQ8DzH2m+pkwJQNPFeEBAUUw/
lpc_rms=-28.28
sample=Clarinet_tremolo_PP_G3.opus
</region>

<region>
hikey=g4
hivel=127
lokey=f#4
lovel=0
lpc=9iSIQmyTssJXv/lBflHYwFX5O0GFOjnBYX6owIg9LcB2ETRBfjsSwNuLjr0wuwNBa0M6wADt/L9xh4dAlm6BwIcVzMC+khY/5BKVPx5nqj+X+zPA4yLjPw9IDr9l1BNB
lpc_rms=-27.10
pitch_keycenter=g4
sample=Clarinet_tremolo_PP_G4.opus
</region>

<region>
hikey=g5
hivel=127
lokey=f#5
lovel=0
lpc=/4iNQpEw5MJWD49CrrK4wY8800FmEUDBwsRjvopUMkB4JFBAxgM0wALyckGXMw3BAaHqQEeRQ8B0qpNA0bR8wPzr0UDKjgFBUs/bvoQ7q8Cr2MZAb43Hv/V55kCTn0pA
lpc_rms=-20.74
pitch_keycenter=g5
sample=Clarinet_tremolo_PP_G5.opus
</region>

<region>
hikey=C7
hivel=127
lokey=f#6
lovel=0
lpc=ysgoQsnYVsJ6WBFCrLbnwLG3EkBNtqlAW5IRwM1ElcD0bw9BinZVPkh797/QMd4/neBKQPTXrsAlcQNBnZQtwvOXMkJlQbTBJn/eO5LzSj4W7cfAKwS7QNszOj9WxZnA
lpc_rms=-20.85
pitch_keycenter=G6
sample=Clarinet_tremolo_PP_G6.opus
</region>
</group>

<group>
group_label=Group_46-90
lpc_hicc1=84
lpc_locc1=43

<region>
hikey=a5
hivel=127
lokey=g#5
lovel=0
lpc=0FsRQgfBbMLrZxNCeMABwS9KvkArN5HAeynDPwPiuD56Ngw/So8OP1wyTkBg/CnACjsgQHIDlr/oU8w/ySVhP5O08z4TugU/jjPdP7152L857Cm+9ftOPusxREFb1UDB
lpc_rms=-15.53
pitch_keycenter=a5
sample=Clarinet_tremolo_MF_A5.opus
</region>

<region>
hikey=b5
hivel=127
lokey=a#5
lovel=0
lpc=Y7r8QQDo9sEi9YJBLGbBwHSzaUDvwdU/SMw8wLibfL9FOF9A5Q+BvpX1E74FX8a/mXOEQJG3VMBKEms/lDYQQN1Awz6ZloDAP6tOQCIr2z96CVa/0IKFv7QjW0CMJmjB
lpc_rms=-14.53
pitch_keycenter=b5
sample=Clarinet_tremolo_MF_B5.opus
</region>

<region>
hikey=c#6
hivel=127
lokey=c6
lovel=0
lpc=Et4xQsWlOMKvarJBuUIVwdFoh0DyOwLAd6SxQBRxKMDojOq9juTeQIZhwsALXpRAc9DMPmpDnj8RGBzAbl/VQGEZUMAQt4o/dIMyQG/02z8DYzTAdWngwW80j0FMrBFA
lpc_rms=-14.54
pitch_keycenter=c#6
sample=Clarinet_tremolo_MF_C#6.opus
</region>

<region>
hikey=d#6
hivel=127
lokey=d6
lovel=0
lpc=VsQKQpia8sHqvkxBAdsdwCQS60BYGCfANSufQM7aLsBJ/rBAqBIjwI5ZXEDuDIk/Q8QxPpvfZ0AFuh7APMGcQCkbO7+/B1lAL8DowI5GlsFvsIxBlAenv0r9Q8Bx37G/
lpc_rms=-16.79
pitch_keycenter=d#6
sample=Clarinet_tremolo_MF_D#6.opus
</region>

<region>
hikey=f6
hivel=127
lokey=e6
lovel=0
lpc=sX8VQg4XFsJueLhBvIrOwBEIt0Ai90BAXhTqP/EJFsCJRdtAWAbcvwj42z9kSn5ADn5dPbB6rj9OESJAsx6QQKn9PsEUDFHBTR6HQWd9jMCE646/kzUCwPpu3b4H9IE/
lpc_rms=-15.54
pitch_keycenter=f6
sample=Clarinet_tremolo_MF_F6.opus
</region>

<region>
hikey=C7
hivel=127
lokey=f#6
lovel=0
lpc=ek6iQTG6rMGepYBBIcdIwFgYi0AVw1m/nQ0fQPz6RMBn6XdAhyA1v1q87D+O/3A/dDkEQG9kHr9yR45AliWWwe5XfkFxrLbAG+shwGnJSz9Jt4S/FCW1P6sTWj/1OSs/
lpc_rms=-14.87
pitch_keycenter=G6
sample=Clarinet_tremolo_MF_G6.opus
</region>

<region>
hikey=a3
hivel=127
lokey=g#3
lovel=0
lpc=npMWQgh/l8KysAhCsMYSQRo1+T9Y4b7A/vaywIdAXD+qL/pAbVhuwI4wqD/SRvI/5JoywSn6/0Dkpg1Ap3UZwCDuE78wmq69kRINPTics75b7c2+qsX8P3CJur+a3UY/
lpc_rms=-17.21
pitch_keycenter=a3
sample=Clarinet_tremolo_MF_A3.opus
</region>

<region>
hikey=a4
hivel=127
lokey=g#4
lovel=0
lpc=avPfQS+DX8IeOBdCUo3QwB6lgkCVa9zA2F8IwP5O0D7BiS1AZ+wEQRe+DMFygGI9FPwZwCRRGEBpksNAGyi+wJJ7mby+SQzA99aXQDdFCMBt3gS/sbusQFSsGME6TeNA
lpc_rms=-16.42
pitch_keycenter=a4
sample=Clarinet_tremolo_MF_A4.opus
</region>

<region>
hikey=b3
hivel=127
lokey=a#3
lovel=0
lpc=UgrZQVDuiMJ8WFxCoSbvwPcOT8Af/bXAly4rwHlYmUA8pypAKTdiQKLm+sADbPw/HOvKvwE97D9PP6U+VhDFP8M7kbzcS2HAIvnHPh6k2T2+m6hAssp/wOry678mXPo/
lpc_rms=-15.65
pitch_keycenter=b3
sample=Clarinet_tremolo_MF_B3.opus
</region>

<region>
hikey=b4
hivel=127
lokey=a#4
lovel=0
lpc=kRA4QvrfocJGpypCPMvaP5SaGUEevzjBi0TawAWQVr8/PhBBYtKMQGI9AMGngBrANqQXPynOGkC9oIQ/Fhqqv1ptM7+4X6Y9KQMkQNKcgb//9FVAOlx2P3+IzcDNUvxA
lpc_rms=-14.21
pitch_keycenter=b4
sample=Clarinet_tremolo_MF_B4.opus
</region>

<region>
hikey=c#4
hivel=127
lokey=c4
lovel=0
lpc=+5TBQelOZsLCYChCqhAXwa2xEUGNGfvAkTilwJxFh0Dv38O/37wwQdA4MsEWO+W+BFuyP+08dj2zYZJAdA94wPoXLz/Ro6C/0rkgQCir8789Lwg/hTSgv1XMJ0A+K6u/
lpc_rms=-18.73
pitch_keycenter=c#4
sample=Clarinet_tremolo_MF_C#4.opus
</region>

<region>
hikey=c#5
hivel=127
lokey=c5
lovel=0
lpc=eGveQaxVP8KCVeVB1RklwBuM9j8ugN7ApjVVv5X9e0Dcu/S+OXX3vh5AXj+NCPK/u18mQD1M5z5waT2/Sj92wHqDGj7NK6ZAAvrqP7GUkcDg1F896ScXQJj72UCizbLA
lpc_rms=-14.37
pitch_keycenter=c#5
sample=Clarinet_tremolo_MF_C#5.opus
</region>

<region>
hikey=d#4
hivel=127
lokey=d4
lovel=0
lpc=Mk6HQVTKBMKM+45Bip0awJth3EDH1kLABnG3wDqn5z/Hq0HAPg8RQQOnfMDbhvm+uIsCwABe/r9lq8RApo4DwHlEoD9Z02XADcTaP9MuS79P6wBAaA9Gv40Pk7+Wr5o/
lpc_rms=-22.12
pitch_keycenter=d#4
sample=Clarinet_tremolo_MF_D#4.opus
</region>

<region>
hikey=d#5
hivel=127
lokey=d5
lovel=0
lpc=5SsvQRScu8GVd5lBY4vCwBfqQz8S7Yc+x/+2vxNre769C1NAjw/Fv8OOFL8VzPg+6OBav8uR1T3n0Os/8hVuvwMCtL8GYi1Aoj2MvzfJLz9pik2+1G0NPakfx7/S5eY/
lpc_rms=-20.68
pitch_keycenter=d#5
sample=Clarinet_tremolo_MF_D#5.opus
</region>

<region>
hikey=f4
hivel=127
lokey=e4
lovel=0
lpc=N6LzQY9BicJp+UJCN74RwSu2l0BOwOjAgO35v5M3bECrWbi/vTPuQOEHCsHplSpAMrgowJclhUDm/3A9Ac1OwI2LA7+p1BJAvE/yP3RE8L+Fagw/C81yv7AtbMCZ9YpA
lpc_rms=-18.32
pitch_keycenter=f4
sample=Clarinet_tremolo_MF_F4.opus
</region>

<region>
hikey=f5
hivel=127
lokey=e5
lovel=0
lpc=1Li5QcOuPcJASiJCrEKKwWwXaEBU4oRAzISevyYdtsCwQElA3xWiQAnricAccilA2r0CwKxqZL+bKlxA7FpfP9fMv78emSI+GJKXP+sr7L1hdhq/U9WWQDtQ3cDDf6BA
lpc_rms=-15.62
pitch_keycenter=f5
sample=Clarinet_tremolo_MF_F5.opus
</region>

<region>
hikey=g4
hivel=127
lokey=f#4
lovel=0
lpc=o1nxQVYDbsIxpw5Coop6wA0MVkBwuuzA5Zf8P2C5h772mkJAcnIUQIpU88CDR1xAGnhwvn9XqL4I9sI/V5MLv3Gjj7/ZFp8/4shtvgHOnb7m420/c+g6P6WLAsHQOvtA
lpc_rms=-17.91
pitch_keycenter=g4
sample=Clarinet_tremolo_MF_G4.opus
</region>

<region>
hikey=g5
hivel=127
lokey=f#5
lovel=0
lpc=IuGJQWGX0cGGEpNBYZ1twMZ73T4kDqU+OE+EQI/P+b+qlSq/giliQHEgI8DbcFZAcDQzQP0IHsAvpYg/xU7dPjs1bD8hmxxASfCYP1H2t78R/3c/E+5mQDykvMDKAeVA
lpc_rms=-17.99
pitch_keycenter=g5
sample=Clarinet_tremolo_MF_G5.opus
</region>

<region>
hivel=127
key=g3
lovel=0
lpc=0mweQtBMj8KbhNtBccAiQFGHG0FGM8nAIhxtwLzzkT/aMtxA6t6SwPiQBMC1CG1AnFIEwY+8v0Ai7xK+wSAcwPkTbb8dOJhA8OxwPytCFL/RtYDAAdx0P9g0RD4aQp4/
lpc_rms=-19.32
sample=Clarinet_tremolo_MF_G3.opus
</region>
</group>

<group>
group_label=Group_91-127
lpc_hicc1=127
lpc_locc1=85

<region>
hikey=a5
hivel=127
lokey=g#5
lovel=0
lpc=X+2GQfWomcF9IYdBfvTGwFmKw0BoYq8/Wx62P+7Ipb8uBtRAG3APP031ej8MqaI/yVR3QLOrSL6/AW5AHa/dP8NEXr+EIYVAV7NVQHs9/z4UPXa/R2fCQFNLcb/T+5pA
lpc_rms=-10.19
pitch_keycenter=a5
sample=Clarinet_tremolo_FF_A5.opus
</region>

<region>
hikey=b5
hivel=127
lokey=a#5
lovel=0
lpc=s9t2QdtHSsHKJhpBH4e0vzIztT9M02s+XUCHQDBLBcDlSztAqGdlPx0bFEDXsOK/nhmyQIWVFcD8iSdAomK8P5RQ1T+jyny/F5uAQFNpa7v+G2Y/6JYcPxchxkCBAgvB
lpc_rms=-13.35
pitch_keycenter=b5
sample=Clarinet_tremolo_FF_B5.opus
</region>

<region>
hikey=c#6
hivel=127
lokey=c6
lovel=0
lpc=jU0OQrJOEcIEwsFBD2FWwTMOOkFserfAuyMLQalalsBXS8dA6JIHvprP5D+j0QdAdIutP/dmDEB/96E/fk28P1S4YEAyKwDACVvhQAgPpcAxUlBBYooCwlJzgEFwwl4/
lpc_rms=-8.37
pitch_keycenter=c#6
sample=Clarinet_tremolo_FF_C#6.opus
</region>

<region>
hikey=d#6
hivel=127
lokey=d6
lovel=0
lpc=PoykQZZ20MEAarJBMKQbwSiLg0CjZay/kT1EQFaC3r9i12RAOuLtv9jBKkA5nnW+nauXP+B6az8CwdM+ez+oP4GHub7V3y1AbN8cwFfZc8FD7rBBZoaOwcU4AkFHkbC/
lpc_rms=-12.02
pitch_keycenter=d#6
sample=Clarinet_tremolo_FF_D#6.opus
</region>

<region>
hikey=f6
hivel=127
lokey=e6
lovel=0
lpc=CxTiQfcXDMIePNJBqJAtwVSE2EACLq4/tZDpv0/6FcAjxWxAjnoFPrsSJL/mJU5ArMQhvx4Ddz6+WUtAz4ulv6xh5j/YFsHBVi3WQahmZMEUyTJA3bmavW8yjMCuLLZA
lpc_rms=-10.55
pitch_keycenter=f6
sample=Clarinet_tremolo_FF_F6.opus
</region>

<region>
hikey=g5
hivel=127
lokey=f#5
lovel=0
lpc=unMgQQsUjsGMVY1B61szwbo11kBJ0rm/KWjkPzeQXsDH8JVAv2C+v0hHBL/SvBBAUEWbPuLCr7+EQRFA4ZF6u+LfRL+4n9M/yVIfP/Gjhj195zO/mbOIQAIjwsBM36RA
lpc_rms=-12.26
pitch_keycenter=g5
sample=Clarinet_tremolo_FF_G5.opus
</region>

<region>
hikey=C7
hivel=127
lokey=f#6
lovel=0
lpc=nx8UQlFY/cEdqKJBWZMnP/q/SEAvu4FAJfaiP7uQ/cDtdHFAMy47wGPF80Bi/mrA2Bf3QFW/usAHwGRBc28LwpUiUUHQ3LlABUFhwerXvECbxL7Ac2asP/UMuUDEXopA
lpc_rms=-10.10
pitch_keycenter=G6
sample=Clarinet_tremolo_FF_G6.opus
</region>

<region>
hikey=a3
hivel=127
lokey=g#3
lovel=0
lpc=lzCVQcKgKMJDYO1BQPrcvbL0HcGzO5hAYi1pwDnnE0CEbPU/F3FSP2T4Rj9aoQfBKdDKQAWRxj9agzzAL9A+v3V6Oz+sbzZAZfktwPXqB78QS/E/waFxvoB8nb/LwBw/
lpc_rms=-13.44
pitch_keycenter=a3
sample=Clarinet_tremolo_FF_A3.opus
</region>

<region>
hikey=a4
hivel=127
lokey=g#4
lovel=0
lpc=kByEQTRLBsIGwMZB/fK6wCC2HkD7KrzAiIMOQEdQZb6qySFASgmUvv8IJsATrqw/kMpDv33FUr7WAu8/T8OBv3r9BD+JBt2+4Juvv1KH3j8LPYK/XzlRQNgR1sAfLqtA
lpc_rms=-13.99
pitch_keycenter=a4
sample=Clarinet_tremolo_FF_A4.opus
</region>

<region>
hikey=b3
hivel=127
lokey=a#3
lovel=0
lpc=X6SLQcTjJcLGZQxCnI4uwcaL5L6snAY/OdD8v2SaoD/A2p8/hUw1QAwjacAtTIHAruTEQBCd2TyYWlHAuC9qvi5gez8f0FRA30pvwDh0kz97SeS+r2aNP27PtL95gSw/
lpc_rms=-14.20
pitch_keycenter=b3
sample=Clarinet_tremolo_FF_B3.opus
</region>

<region>
hikey=b4
hivel=127
lokey=a#4
lovel=0
lpc=PtWwQVuWCcLa+YVBDFthQGfKXb/dAGTAHPJpwKJhlkDqOhRAhtR0wKNmGkDLRGzAwaukP93CUEA3YTPAoqujPuohub/xvSJACdBzPW0y5b8gGva7DbQ6QMvdob8O9lBA
lpc_rms=-12.35
pitch_keycenter=b4
sample=Clarinet_tremolo_FF_B4.opus
</region>

<region>
hikey=c#4
hivel=127
lokey=c4
lovel=0
lpc=r5w2QeUaxcGUMYZBJfG4v3Rbm7+MwwPAu0qIv3BpTkBktOc/TqZFwGKEzz+YmyTAlzOIP1NLEUAN4A3AjKVXv1LDDD93kdQ/snvBvB67rL838LA9hekAP0ijPr5I7nm8
lpc_rms=-16.60
pitch_keycenter=c#4
sample=Clarinet_tremolo_FF_C#4.opus
</region>

<region>
hikey=c#5
hivel=127
lokey=c5
lovel=0
lpc=quSTQZXY0MG3+KlBBIW2wBPoPr9Pk3JAJJt7wAxTC0Dw3hTA6FTIPxNerD9/vQrAvYicPjAihT89M7Y+DY6Ov94IuL/hR+U/wA7mPnwUST74R/Q/3NntP/45nb6pBYVA
lpc_rms=-12.71
pitch_keycenter=c#5
sample=Clarinet_tremolo_FF_C#5.opus
</region>

<region>
hikey=d#4
hivel=127
lokey=d4
lovel=0
lpc=I9g0QQuUvsGW2nxBd80lwKJ+E0BWc3HAC7wXvyyTZD9iEMM/b6xFvza7kz/mLxLA/Q8xP11NYj8tKNw9bqeIv+ZWCD/orj8/Xlkfv8tzBr/622y9wqpBP+vxlr/i7Xk/
lpc_rms=-19.74
pitch_keycenter=d#4
sample=Clarinet_tremolo_FF_D#4.opus
</region>

<region>
hikey=d#5
hivel=127
lokey=d5
lovel=0
lpc=PDQSQYVNa8GYEEVBOMpdwJQWp7+g4zlAIfJzvwwiLsB9P3hAazI1wAG1RUDM7RfA7RPdvkvcHj/gv6s/5/mUv6Juv74EXwBAeJc4vwVShD+21glAVPEGwKL/wz8LQY89
lpc_rms=-12.46
pitch_keycenter=d#5
sample=Clarinet_tremolo_FF_D#5.opus
</region>

<region>
hikey=f4
hivel=127
lokey=e4
lovel=0
lpc=6iiKQcWAIsKc9gJCPkcAweE3zT/Hj7vAxYeXP2xMSkCjhie/3VwJQFEjasByzIK+5tLfP2jcdr8MsP0/cm9OwK2/L0ALXJm+BZkGwIDY9D9EmiG/mf1KQLwS0MBHzXJA
lpc_rms=-14.72
pitch_keycenter=f4
sample=Clarinet_tremolo_FF_F4.opus
</region>

<region>
hikey=f5
hivel=127
lokey=e5
lovel=0
lpc=TDsuQVqgvcGSmL5BrRVhwbPJkUC/2VFAqG+ZwMd06j/mpXy+wTW3P6L+l78vmTQ/7sAhP+k88L9acsI/IjgFP3faw74Xbco/6DQ7wHGCPkAx0RbAwSp0QIS6dsBVrA9A
lpc_rms=-12.26
pitch_keycenter=f5
sample=Clarinet_tremolo_FF_F5.opus
</region>

<region>
hivel=127
key=g3
lovel=0
lpc=HUpvQSg3+cGF3JZBbVkWvGaDDsBsPf+/Dd/RPyteJz/V6kc/uZ4jv9xsMr73QxLAbBceQAJwcr5GsJq/MTKeP+N3mr/VJ+w/Sbb/vw7JFz9R3ME+7ZuxPmWlmr+ur0I/
lpc_rms=-14.73
sample=Clarinet_tremolo_FF_G3.opus
</region>

<region>
hikey=g4
hivel=127
lokey=f#4
lovel=0
lpc=1JeJQbxgGcIEkelBri6ywM5Xjj4hk6nAMm0OQCw1OD/ZTaI/Pm9NP2WrT8C6VrM/j+ZaPsf1a7+s1No/l0CMv7mcSj4XrCk/t5wJwBxf1j+l58i/t0WrQLxwBMGc1ppA
lpc_rms=-15.19
pitch_keycenter=g4
sample=Clarinet_tremolo_FF_G4.opus
</region>
</group>